<svg width="500" height="503" viewBox="0 0 500 503" fill="none" xmlns="http://www.w3.org/2000/svg">
<g id="github">
<g id="runes-group">
<text id="l-letter" fill="white" xml:space="preserve" style="white-space: pre" font-family="MadokaMusical" font-size="72" letter-spacing="0em"><tspan x="28.6215" y="191.547">L</tspan></text>
<text id="i-letter" fill="white" xml:space="preserve" style="white-space: pre" font-family="MadokaMusical" font-size="72" letter-spacing="0em"><tspan x="6" y="296.32">i</tspan></text>
<text id="n-letter" fill="white" xml:space="preserve" style="white-space: pre" font-family="MadokaMusical" font-size="72" letter-spacing="0em"><tspan x="20.8826" y="421.929">n</tspan></text>
</g>
<g id="circle-group">
<circle id="circle" cx="252.507" cy="274.385" r="151.714" stroke="white" stroke-width="20"/>
<path id="vector-1" d="M249.207 130.792C294.753 131.3 327.851 147.018 348.028 165.124C375.141 189.454 395.301 232.901 396.812 282.002" stroke="white" stroke-width="20"/>
<path id="vector-2" d="M245.796 115.867V162.847" stroke="white" stroke-width="20"/>
<path id="vector-3" d="M275.198 12L267.528 119.383L318.663 136.002M318.663 136.002L336.56 95.0939M318.663 136.002L359.571 175.631M359.571 175.631L445.221 119.383M359.571 175.631L385.138 225.487M385.138 225.487L436.273 202.477M385.138 225.487L396.643 261.282H495.077" stroke="white" stroke-width="15"/>
<path id="vector-4" d="M86 294.519C89.5501 330.346 110.289 372.5 142.248 399.345C174.207 426.191 207.947 440.06 245.796 440.253" stroke="white" stroke-width="20"/>
</g>
<g id="github-logo">
<path id="Vector" d="M150 279C150 251.396 159.766 227.828 179.297 208.297C198.828 188.766 222.396 179 250 179C277.604 179 301.172 188.766 320.703 208.297C340.234 227.828 350 251.396 350 279C350 306.604 340.234 330.172 320.703 349.703C301.172 369.234 277.604 379 250 379C222.396 379 198.828 369.234 179.297 349.703C159.766 330.172 150 306.604 150 279ZM160.937 279C160.937 303.479 169.661 324.443 187.109 341.891C204.557 359.338 225.521 368.063 250 368.063C274.479 368.063 295.443 359.339 312.891 341.891C330.339 324.443 339.063 303.479 339.063 279C339.063 254.521 330.339 233.557 312.891 216.109C295.443 198.661 274.479 189.937 250 189.937C225.521 189.937 204.557 198.661 187.109 216.109C169.661 233.557 160.937 254.521 160.937 279ZM189.063 300.484C188.542 299.963 188.542 299.443 189.063 298.922C190.104 297.88 191.406 297.489 192.969 297.75C194.531 298.01 195.443 298.271 195.703 298.531C197.526 299.312 199.544 301.07 201.758 303.805C203.971 306.539 205.729 308.427 207.031 309.469C213.281 314.677 219.661 315.068 226.172 310.64C226.692 308.818 227.539 307.255 228.711 305.953C229.882 304.651 230.989 303.739 232.031 303.218C233.073 302.698 234.896 301.916 237.5 300.875C228.906 300.093 221.94 298.596 216.601 296.382C211.263 294.169 207.031 291.369 203.906 287.984C199.739 283.297 197.2 277.177 196.289 269.625C195.377 262.073 195.963 255.172 198.047 248.922C199.609 245.015 201.823 241.5 204.687 238.375C202.604 231.864 202.994 224.442 205.859 216.109C214.192 216.63 221.744 219.495 228.515 224.703C241.536 221.317 255.078 221.187 269.14 224.312C270.963 223.01 273.762 221.383 277.538 219.429C281.314 217.476 286.067 216.369 291.796 216.109C292.838 218.974 293.554 222.359 293.945 226.265C294.335 230.171 294.14 233.817 293.359 237.203C299.348 243.453 302.473 251.786 302.734 262.203C302.734 270.536 301.302 277.437 298.437 282.906C295.572 288.374 290.494 292.932 283.203 296.577C278.255 298.921 271.744 300.353 263.671 300.874C267.317 302.697 269.987 304.585 271.679 306.538C273.372 308.492 274.479 311.551 275 315.718V328.023L275.39 339.937C276.172 341.239 277.083 342.346 278.125 343.258C279.167 344.169 280.078 344.82 280.859 345.211C281.64 345.601 281.901 346.187 281.64 346.969C281.38 347.75 280.338 348.14 278.515 348.14C274.088 348.14 270.573 346.578 267.969 343.453C267.187 342.151 266.797 340.588 266.797 338.765V320.015C266.797 317.932 266.276 316.434 265.234 315.523C264.193 314.611 263.151 314.026 262.109 313.765V338.374C262.109 342.802 262.63 345.666 263.672 346.968C264.713 348.27 265.364 349.573 265.625 350.874C265.885 351.135 265.69 351.33 265.039 351.46C264.388 351.59 263.281 351.395 261.719 350.874C258.333 350.093 255.989 348.335 254.687 345.601C253.385 342.867 252.734 339.937 252.734 336.812V312.594H247.656V336.812C247.656 339.937 247.005 342.932 245.703 345.797C243.88 349.443 240.494 351.396 235.547 351.656C234.766 351.396 234.375 351.135 234.375 350.875C234.635 350.614 235.417 349.313 236.719 346.969C236.979 346.448 237.305 345.406 237.695 343.844C238.086 342.281 238.281 340.458 238.281 338.375V313.765C237.24 314.026 236.263 314.612 235.352 315.523C234.44 316.435 233.984 317.932 233.984 320.016V338.766C233.984 340.588 233.594 342.151 232.812 343.453C230.469 346.578 226.953 348.141 222.266 348.141C220.443 348.141 219.401 347.75 219.141 346.969C218.88 346.448 218.945 345.992 219.336 345.602C219.727 345.211 220.313 344.755 221.094 344.234C221.875 343.714 222.396 343.323 222.657 343.063C223.698 342.281 224.479 341.24 225 339.938C225.782 338.896 225.977 336.162 225.586 331.734C225.196 327.307 225.13 324.443 225.391 323.141C218.62 325.484 211.719 324.312 204.687 319.625C202.604 317.542 200.521 314.547 198.437 310.641C196.875 307.776 193.75 304.39 189.063 300.484V300.484Z" fill="white"/>
</g>
</g>
</svg>
